<svg xmlns="http://www.w3.org/2000/svg" width="220" height="22" fill="none"><g clip-path="url(#a)"><path d="M113.474 21.235h5.313V1.147h-7.716l-6.831 15.396-6.831-15.396h-7.875v20.088h5.313V5.84l6.673 15.36h5.471l6.483-14.876v14.91Zm-77.607 0h23.56V16.51H40.865v-3.232h18.247V9.07H40.864V5.84h18.564V1.147h-23.56v20.088Zm35.99 0h5.312V5.84h8.823V1.147h-22.99v4.692h8.854v15.396Zm114.322 0h5.629V1.147h-5.629v20.088Zm18.753 0h5.313V5.84h8.823V1.147h-22.991v4.692h8.824v15.396h.031Zm-49.587 0h19.734c3.605 0 6.23-2.606 6.23-6.186a6.294 6.294 0 0 0-1.993-4.588l-.063-.034.032-.07a6.239 6.239 0 0 0 .759-2.989c0-3.302-2.815-6.186-6.009-6.186h-18.69v20.053Zm19.607-4.552h-14.61v-3.406h14.61c.854 0 1.55.764 1.55 1.703 0 .938-.696 1.703-1.55 1.703Zm-1.233-7.612h-13.377V5.665h13.377c.854 0 1.549.765 1.549 1.703 0 .938-.695 1.703-1.549 1.703Zm-26.723-6.29C144.276 1.007 140.766 0 136.971 0s-7.274.973-10.025 2.78c-3.036 1.981-4.712 4.9-4.712 8.168 0 3.267 1.676 6.151 4.712 8.167 2.72 1.773 6.23 2.78 10.025 2.78 3.763 0 7.274-.972 10.025-2.78 3.036-1.98 4.712-4.9 4.712-8.167 0-3.302-1.676-6.187-4.712-8.168Zm-10.025 14.353c-6.736 0-9.108-3.719-9.108-6.22 0-4.276 4.681-6.222 9.108-6.222 6.04 0 9.108 3.128 9.108 6.221 0 4.31-5.281 6.221-9.108 6.221ZM30.902 10.01v11.226H26.95c0-1.842.127-3.37.127-3.406v-.208l-.253.243C23.818 20.61 19.865 22 15.058 22 3.231 22 .068 15.118.068 11.087.068 7.299 3.262.139 15.406.139c7.622 0 13.061 3.44 12.903 3.302L26.38 7.924s-4.586-2.989-11.005-2.989c-7.148 0-9.71 3.302-9.71 6.117s2.246 6.117 9.362 6.117c3.7 0 7.02-1.043 9.044-2.85l.159-.139h-4.586v-4.17h11.258Z" fill="#fff"/></g><defs><clipPath id="a"><path fill="#fff" transform="translate(.068)" d="M0 0h219v22H0z"/></clipPath></defs></svg>