<?xml version="1.0" encoding="UTF-8"?> <svg xmlns="http://www.w3.org/2000/svg" width="220" height="22" viewBox="0 0 220 22" fill="none"> <g clip-path="url(#clip0)"> <path d="M113.474 21.2354H118.787V1.14692H111.071L104.24 16.5434L97.4087 1.14692H89.5342V21.2354H94.8471V5.83886L101.52 21.2006H106.991L113.474 6.32543V21.2354ZM35.8673 21.2354H59.4276V16.5087H40.864V13.2765H59.1114V9.07109H40.864V5.83886H59.4276V1.14692H35.8673V21.2354ZM71.8561 21.2354H77.169V5.83886H85.9923V1.14692H63.0012V5.83886H71.8561V21.2354ZM186.179 21.2354H191.808V1.14692H186.179V21.2354ZM204.932 21.2354H210.245V5.83886H219.068V1.14692H196.077V5.83886H204.901V21.2354H204.932ZM155.345 21.2354H175.079C178.684 21.2354 181.309 18.6288 181.309 15.049C181.309 13.3112 180.581 11.643 179.316 10.4613L179.253 10.4265L179.285 10.357C179.791 9.41864 180.044 8.41074 180.044 7.36809C180.044 4.06635 177.229 1.18167 174.035 1.18167H155.345V21.2354ZM174.952 16.6825H160.342V13.2765H174.952C175.806 13.2765 176.502 14.0411 176.502 14.9795C176.502 15.9179 175.806 16.6825 174.952 16.6825ZM173.719 9.07109H160.342V5.66509H173.719C174.573 5.66509 175.268 6.4297 175.268 7.36809C175.268 8.30648 174.573 9.07109 173.719 9.07109ZM146.996 2.78041C144.276 1.0079 140.766 0 136.971 0C133.176 0 129.697 0.973144 126.946 2.78041C123.91 4.76145 122.234 7.68088 122.234 10.9479C122.234 14.2148 123.91 17.0995 126.946 19.1153C129.666 20.8878 133.176 21.8957 136.971 21.8957C140.734 21.8957 144.245 20.9226 146.996 19.1153C150.032 17.1343 151.708 14.2148 151.708 10.9479C151.708 7.64613 150.032 4.76145 146.996 2.78041ZM136.971 17.1343C130.235 17.1343 127.863 13.4155 127.863 10.9131C127.863 6.63823 132.544 4.69194 136.971 4.69194C143.011 4.69194 146.079 7.81991 146.079 10.9131C146.079 15.2227 140.798 17.1343 136.971 17.1343ZM30.9023 10.0095V21.2354H26.9492C26.9492 19.3934 27.0757 17.8641 27.0757 17.8294V17.6209L26.8227 17.8641C23.8184 20.6098 19.8653 22 15.0584 22C3.23081 22 0.0683594 15.1185 0.0683594 11.0869C0.0683594 7.29858 3.26244 0.139021 15.4063 0.139021C23.0278 0.139021 28.4672 3.57978 28.3091 3.44076L26.38 7.92417C26.38 7.92417 21.7944 4.93523 15.3746 4.93523C8.22749 4.93523 5.6659 8.23697 5.6659 11.0521C5.6659 13.8673 7.91125 17.169 15.0268 17.169C18.7268 17.169 22.0474 16.1264 24.0714 14.3191L24.2295 14.1801H19.644V10.0095H30.9023Z" fill="white"></path> </g> <defs> <clipPath id="clip0"> <rect width="219" height="22" fill="white" transform="translate(0.0683594)"></rect> </clipPath> </defs> </svg> 